<?xml version="1.0" standalone="no"?>
<!DOCTYPE svg PUBLIC "-//W3C//DTD SVG 20010904//EN"
 "http://www.w3.org/TR/2001/REC-SVG-20010904/DTD/svg10.dtd">
<svg version="1.0" xmlns="http://www.w3.org/2000/svg"
 width="512.000000pt" height="512.000000pt" viewBox="0 0 512.000000 512.000000"
 preserveAspectRatio="xMidYMid meet">
<metadata>
Created by potrace 1.14, written by Peter Selinger 2001-2017
</metadata>
<g transform="translate(0.000000,512.000000) scale(0.100000,-0.100000)"
fill="#000000" stroke="none">
<path d="M2447 4884 c-1 -1 -40 -5 -87 -8 -369 -28 -763 -165 -1081 -376 -196
-130 -389 -305 -524 -475 -22 -27 -43 -52 -46 -55 -4 -3 -38 -53 -78 -111
-351 -524 -472 -1150 -347 -1786 18 -89 81 -293 124 -398 30 -73 147 -299 187
-360 52 -80 165 -232 200 -270 155 -168 241 -248 366 -342 351 -264 758 -420
1194 -460 145 -13 431 -6 520 12 11 3 37 7 58 10 366 51 796 244 1092 490 355
295 591 634 736 1055 198 573 156 1233 -113 1775 -83 167 -224 381 -319 485
-148 162 -246 254 -374 350 -146 110 -348 226 -488 281 -29 11 -65 27 -82 34
-121 55 -422 124 -610 141 -65 6 -323 12 -328 8z m420 -908 c57 -15 112 -46
148 -82 77 -77 105 -146 102 -250 -10 -292 -395 -425 -609 -210 -44 43 -55 62
-86 137 -17 42 -9 158 15 210 71 158 256 242 430 195z m-287 -967 c122 -25
220 -97 266 -195 39 -84 45 -135 30 -289 -5 -58 -62 -299 -83 -355 -3 -8 -7
-19 -9 -25 -1 -5 -25 -93 -54 -195 -28 -102 -53 -196 -55 -210 -3 -14 -7 -36
-10 -50 -3 -14 -7 -59 -9 -102 -5 -95 16 -147 72 -174 53 -26 195 -24 282 4
35 12 65 20 67 18 7 -7 -30 -146 -40 -154 -7 -4 -39 -18 -72 -31 -33 -12 -69
-26 -80 -31 -66 -28 -197 -69 -235 -74 -74 -11 -234 -8 -286 5 -134 33 -232
107 -280 211 -26 57 -29 73 -28 163 1 129 13 192 91 470 122 428 137 496 137
601 -1 129 -58 175 -209 169 -47 -1 -107 -11 -144 -24 -35 -12 -65 -20 -67
-18 -5 5 34 149 43 157 11 9 213 84 284 104 64 19 88 24 144 32 22 4 41 7 43
8 6 6 153 -5 202 -15z"/>
</g>
</svg>
